<svg width="508" height="333" viewBox="0 0 508 333" fill="none" xmlns="http://www.w3.org/2000/svg">
<path d="M300.081 188.429C288.145 201.21 266.367 192.663 261.942 176.844C257.88 163.249 247.842 148.942 259.957 136.095C272.072 123.247 279.109 136.832 293.208 138.079C307.307 139.325 314.986 152.035 314.329 162.209C313.595 173.648 308.321 180.9 300.081 188.429Z" fill="#F3D665"/>
<path d="M89.1135 273.471C86.2159 294.789 120.723 285.266 131.266 295.662C142.91 310.309 161.216 321.747 180.336 313.897C209.343 301.671 240.075 258.393 243.385 251.985C246.695 245.577 245.384 240.684 243.787 237.78C235.993 224.848 207.334 221.723 190.911 224.153C172.626 227.847 162.569 238.516 149.297 250.091C134.524 257.677 142.793 226.016 121.421 233.139C105.146 238.548 92.561 257.572 89.1135 273.471Z" fill="#F3D665"/>
<g clip-path="url(#clip0_449_429)">
<path d="M337.632 133.153C339.406 125.379 339.019 114.889 337.268 107.625C334.136 94.6006 325.291 72.8665 315.44 63.8361C287.469 38.1921 230.968 61.5688 208.134 84.8296C179.858 113.658 172.2 153.116 194.727 188.154C198.308 193.731 202.143 200.009 208.843 204.665C208.876 204.802 334.504 142.743 334.504 142.743C336.299 138.914 337.09 135.511 337.623 133.158L337.632 133.153ZM212.555 177.906C210.492 173.771 208.377 169.532 206.868 165.157C199.52 143.92 201.642 124.925 216.889 108.261C227.514 96.6519 247.379 80.8725 264.09 78.2486C275.762 76.4128 293.367 79.6605 302.342 87.4729C315.292 98.731 310.071 113.928 301.365 125.86C298.087 130.366 298.279 129.775 293.776 132.953C271.998 148.277 246.467 158.44 223.178 171.432C219.639 173.412 216.536 176.533 212.555 177.906Z" fill="#F2674E"/>
<path d="M212.554 177.906C210.491 173.771 208.376 169.532 206.867 165.157C199.519 143.92 201.641 124.925 216.888 108.261C227.513 96.6517 247.378 80.8723 264.089 78.2485C275.761 76.4127 293.366 79.6604 302.341 87.4727C315.291 98.7308 310.07 113.928 301.364 125.86C298.087 130.366 298.278 129.775 293.775 132.953C271.997 148.277 246.466 158.439 223.177 171.432C219.638 173.412 216.535 176.533 212.554 177.906Z" fill="#EE4020"/>
<path d="M233.945 137.834C233.383 139.199 222.871 140.329 221.308 139.7C219.301 138.89 218.626 135.365 220.518 133.919C225.021 130.481 230.565 134.636 233.95 137.844L233.945 137.834Z" fill="#F4BA92"/>
<path d="M272.804 102.068C272.877 101.311 275.252 99.5551 276.298 99.3077C282.147 97.9406 281.991 110.023 280.561 113.541C279.609 112.455 276.996 110.518 276.441 109.4C275.887 108.282 272.77 102.474 272.804 102.068Z" fill="#F4BA92"/>
<path d="M261.98 104.356C262.638 105.375 265.456 111.603 264.499 112.053C261.757 111.785 250.938 105.773 254.519 102.403C257.402 99.6978 260.205 101.589 261.975 104.347L261.98 104.356Z" fill="#F4BA92"/>
<path d="M240.901 116.831C241.853 117.586 246.534 122.571 245.77 123.316C243.087 123.95 230.907 121.741 233.214 117.398C235.07 113.904 238.33 114.789 240.901 116.831Z" fill="#F4BA92"/>
</g>
<path d="M40.7793 184.252C39.8275 182.621 38.7529 180.464 38.4551 178.664C44.1622 160.317 55.2726 148.058 70.2206 136.305C89.5369 121.113 117.325 117.412 141.012 120.987C166.447 124.829 189.723 142.426 201.001 165.455C201.459 168.868 200.31 172.717 199.268 176.024C194.468 191.187 180.66 206.555 166.032 212.826C159.601 215.586 151.688 217.449 144.822 219.042C118.549 225.141 94.5669 227.325 70.1389 213.601C57.2429 206.36 48.1658 196.972 40.7793 184.252Z" fill="#F8E6C0"/>
<path d="M38.4561 178.663C39.5844 180.49 40.3309 182.494 41.3651 184.371C53.7172 206.839 78.0404 221.329 103.34 223.199C120.885 224.496 144.24 219.352 161.092 214.156C172.754 210.564 181.773 202.802 189.401 193.354C195.923 185.274 199.906 175.746 201.002 165.455C212.049 187.994 210.539 211.859 198.723 233.84C188.511 252.834 165.603 267.038 145.471 273.461C131.442 277.937 118.648 276.107 104.435 273.773C91.7203 271.683 82.4715 268.962 71.7139 261.41C43.0136 241.25 27.6825 213.324 38.4561 178.663Z" fill="#FBF3DB"/>
<rect x="84.7949" y="155.72" width="6.36467" height="7.77904" transform="rotate(43.6591 84.7949 155.72)" fill="#4E4031"/>
<rect x="117.176" y="176.868" width="6.36467" height="7.77904" transform="rotate(65.6261 117.176 176.868)" fill="#4E4031"/>
<rect x="136.703" y="199.063" width="6.36467" height="7.77904" transform="rotate(113.974 136.703 199.063)" fill="#4E4031"/>
<path d="M210.398 146.715L230.41 163.038L223.513 173.05L205.557 158.215C187.441 161.628 165.971 166.503 147.537 163.26C132.546 160.62 127.027 150.58 120.588 138.159C111.864 121.328 105.685 102.663 99.927 84.6357L147.411 65.6805C154.58 67.371 161.755 69.9243 168.675 72.4699C176.465 75.3399 184.981 77.8602 190.647 84.1534C198.079 92.4111 203.127 103.736 208.368 113.453L210.399 146.709L210.398 146.715Z" fill="#5B9856"/>
<path d="M192.252 146.449L119.751 94.3059" stroke="#3B8044" stroke-width="4.22974" stroke-miterlimit="10"/>
<path d="M124.398 123.174L163.385 125.684" stroke="#3B8044" stroke-width="4.22974" stroke-miterlimit="10"/>
<path d="M176.087 134.82L163.405 95.0932" stroke="#3B8044" stroke-width="4.22974" stroke-miterlimit="10"/>
<path d="M432.513 208.853C421.156 223.261 407.061 230.394 389.717 235.765C367.303 242.709 341.263 236.513 321.365 225.231C300 213.115 285.261 189.472 283.075 165.085C280.927 141.214 290.429 120.453 308.475 104.892C324.071 91.447 349.349 86.6109 369.493 87.7638C383.531 88.5662 394.312 94.5701 406.187 101.508C416.809 107.716 424.126 113.302 431.137 123.711C449.836 151.494 453.963 181.631 432.513 208.853Z" fill="#FBF3DB"/>
<path d="M288.16 186.296C320.721 215.064 411.392 252.627 445.706 181.55C430.607 249.551 317.624 263.994 288.16 186.296Z" fill="#F8E6C0"/>
<rect x="382.738" y="126.463" width="6.36467" height="7.77904" transform="rotate(-162.057 382.738 126.463)" fill="#4E4031"/>
<rect x="391.725" y="189.997" width="6.36467" height="7.77904" transform="rotate(-175.465 391.725 189.997)" fill="#4E4031"/>
<path d="M235.293 328.059C202.933 317.706 158.655 270.547 155.893 236.03C154.301 216.232 158.694 208.971 163.47 191.673L341.779 192.673C341.779 192.673 349.908 200.157 351.434 201.789C372.021 223.73 370.811 272.783 356.183 297.619C336.754 330.624 268.758 338.766 235.293 328.059Z" fill="#F2674E"/>
<path d="M267.904 306.643C232.255 296.422 198.106 283.07 188.003 242.686C186.07 234.951 185.188 226.808 185.557 218.666C188.582 217.561 191.871 217.679 194.87 217.14C230.611 210.747 262.668 210.444 298.896 215.245C301.211 215.561 303.96 214.93 306.039 215.338C307.249 215.561 316.168 221.468 317.772 222.651C353.329 248.974 337.241 283.53 303.947 300.881C297.593 304.209 290.74 307.735 283.058 308.577C276.757 309.261 273.573 308.274 267.904 306.643Z" fill="#EE4020"/>
<path d="M242.844 264.377C241.437 263.338 240.621 258.813 240.621 257.024C240.621 255.393 241.331 248.276 242.976 248.276C244.462 248.276 252.276 257.406 252.868 259.3C255.078 266.43 246.001 266.706 242.857 264.391L242.844 264.377Z" fill="#F4BA92"/>
<path d="M289.963 257.354C293.672 259.156 308.247 267.404 301.091 272.087C293.988 276.743 289.7 262.273 289.963 257.354Z" fill="#F4BA92"/>
<path d="M275.979 272.283C275.452 272.836 272.729 273.862 271.901 273.783C267.428 273.375 266.402 260.089 266.955 256.695C271.48 258.458 280.57 267.416 275.979 272.283Z" fill="#F4BA92"/>
<path d="M293.896 236.99C298.172 238.595 312.444 240.7 307.985 247.461C303.355 254.486 293.91 242.305 293.896 236.99Z" fill="#F4BA92"/>
<path d="M219.902 241.186C220.073 240.963 222.152 238.424 222.612 239.621C224.02 243.883 226.637 261.51 217.706 255.683C213.049 252.644 217.298 244.593 219.902 241.186Z" fill="#F4BA92"/>
<path d="M427.866 183.682C425.703 179.793 424.876 175.294 422.852 171.333C420.14 166.494 414.863 159.759 419.584 154.633C433.492 146.867 446.229 164.706 447.474 178.756C448.719 192.806 432.125 194.051 427.866 183.682Z" fill="#F3D665"/>
<path d="M367.587 272.533L343.515 286.217L336.178 275.442L357.965 263.239C361.571 243.805 365.015 220.453 375.398 203.279C383.844 189.315 396.02 187.687 410.932 186.061C431.139 183.859 452.193 184.913 472.446 186.14L473.001 240.955C468.534 247.467 463.201 253.652 457.976 259.583C452.089 266.259 446.27 273.797 437.784 277.023C426.649 281.255 413.371 281.914 401.626 283.389L367.593 272.537L367.587 272.533Z" fill="#5B9856"/>
<path d="M374.879 254.497L455.095 202.215M424.435 195.678L406.822 233.681M392.769 242.84L437.398 245.551" stroke="#3B8044" stroke-width="4.22974" stroke-miterlimit="10"/>
<rect x="340.973" y="154.662" width="6.36467" height="7.77904" transform="rotate(88.5089 340.973 154.662)" fill="#4E4031"/>
<rect x="411.781" y="135.893" width="6.36467" height="7.77904" transform="rotate(-60.6845 411.781 135.893)" fill="#4E4031"/>
<defs>
<clipPath id="clip0_449_429">
<rect width="113.209" height="166.948" fill="white" transform="translate(303.002 32) rotate(63.616)"/>
</clipPath>
</defs>
</svg>
