<svg width="34" height="32" viewBox="0 0 34 32" fill="none" xmlns="http://www.w3.org/2000/svg">
<path d="M29.9537 6.60572C28.4707 4.55907 26.5236 2.89325 24.272 1.74497C22.0205 0.596686 19.5287 -0.00132914 17.0013 2.21814e-06C8.73159 2.21814e-06 1.93083 6.27048 1.08816 14.3177L0.929688 15.8324L3.96207 16.1509L4.11902 14.6347C4.40284 11.9525 5.5168 9.42575 7.30551 7.40702C9.09421 5.38829 11.4684 3.97824 14.097 3.37358C16.7255 2.76892 19.4772 2.99981 21.9682 4.03405C24.4592 5.06828 26.5653 6.85428 27.9925 9.14286H22.3346V12.1905H33.0013V1.52381H29.9537V6.60572ZM30.0405 15.8491L29.8821 17.3653C29.5979 20.0471 28.4838 22.5733 26.6952 24.5916C24.9066 26.6099 22.5326 28.0197 19.9045 28.6243C17.2764 29.2289 14.5251 28.9982 12.0343 27.9644C9.54357 26.9305 7.43758 25.1451 6.01007 22.8571H11.668V19.8095H1.00131V30.4762H4.04892V25.3943C5.5319 27.4409 7.47905 29.1067 9.73059 30.255C11.9821 31.4033 14.4739 32.0013 17.0013 32C25.2695 32 32.0718 25.7295 32.9129 17.6823L33.0714 16.1676L30.0405 15.8491Z" fill="#5C464D"/>
</svg>
