<svg width="32" height="32" viewBox="0 0 32 32" fill="none" xmlns="http://www.w3.org/2000/svg">
<path fill-rule="evenodd" clip-rule="evenodd" d="M24.8906 2H7.11328V5.55546H24.8906V2ZM24.8906 9.11035H7.11405V5.60742H3.55859V9.16288H7.11328V12.6658H24.8906V9.11035ZM7.11405 26.5371H24.8906V30.0926H7.11328V26.5379H3.55859V22.9824H7.11405V26.5371ZM24.8906 22.9824H28.4434V9.16288H24.8906V5.60742H28.4461V8.76953H31.9988V22.9914H28.4461V26.5379H24.8906V22.9824ZM0.000974786 8.76953H3.55448C3.55617 11.1412 3.55533 13.5109 3.55448 15.8805C3.55364 18.2501 3.5528 20.6197 3.55448 22.9914H0.000974617C-0.000713503 20.6197 0.000130599 18.2501 0.000974702 15.8805C0.0018188 13.5108 0.00266291 11.1412 0.000974786 8.76953Z" fill="#5C464D"/>
</svg>
