<svg width="508" height="332" viewBox="0 0 508 332" fill="none" xmlns="http://www.w3.org/2000/svg">
<path d="M163.646 230.409L81.8848 321.724L88.849 331.673L193.313 310.283L297.562 278.631L480.519 223.726V205.412L271.191 127.407L163.657 230.42L163.646 230.409Z" fill="#F7D575"/>
<path d="M271.18 127.397V116.782C271.18 108.195 275.479 100.184 282.626 95.4301L290.925 89.9121L506.292 168.648V192.582L480.508 224.224V205.402L271.18 127.397Z" fill="#E8B07B"/>
<path d="M255.643 142.278C188.397 207.519 121.65 273.125 83.6004 319.396C82.2929 322.155 83.9217 324.504 88.1655 326.51L443.077 213.857C443.077 213.857 423.033 193.114 406.955 186.001C390.878 178.887 362.801 183.198 362.801 183.198C362.801 183.198 364.463 174.533 345.172 165.303C325.881 156.073 302.901 160.993 302.901 160.993C302.901 160.993 295.632 147.84 283.411 142.267C271.189 136.694 255.655 142.267 255.655 142.267L255.643 142.278Z" fill="#FCA287"/>
<path d="M174.549 282.506C172.299 284.456 170.515 286.484 168.299 287.359C165.618 288.412 162.881 288.379 160.388 288.135C157.707 287.869 155.18 287.027 152.92 285.653C150.66 284.279 149.053 282.151 147.391 280.079C145.729 278.007 144.2 275.847 143.313 273.42C142.349 270.805 141.408 268.179 141.607 265.675C141.818 262.961 143.568 260.966 145.441 259.005C147.668 256.678 149.363 254.13 151.657 252.612C154.383 250.805 157.153 249.42 159.79 248.789C162.925 248.035 166.227 247.747 168.909 248.733C171.59 249.72 173.197 252.589 175.058 255.337C177.274 257.121 179.723 258.65 180.654 260.955C181.64 263.393 181.219 266.185 181.008 268.833C180.798 271.481 180.532 274.063 179.413 276.478C178.294 278.894 176.31 280.634 174.549 282.539V282.506Z" fill="#FCF3EE"/>
<path d="M182.15 259.384L174.095 258.752C171.358 259.528 165.718 259.628 161.076 258.364C156.079 257.002 152.156 254.243 152.156 254.243C152.156 254.243 154.96 250.442 160.345 251.406C165.973 252.414 170.627 254.974 175.015 255.949C179.89 257.046 183.68 257.666 191.968 253.655C194.893 252.237 197.607 250.453 200.211 248.592L193.164 249.622C190.904 249.932 188.721 249.312 186.826 249.367C183.092 249.467 180.078 249.833 176.998 248.669C172.356 246.919 170.029 242.176 170.029 242.176C170.029 242.176 173.995 240.237 179.835 244.148C183.214 246.409 184.821 246.774 186.915 247.561C189.22 248.437 204.632 244.946 207.713 243.151C210.328 241.622 213.042 240.758 215.79 239.484C216.865 238.985 219.591 237.589 220.577 237.39C222.848 236.935 224.255 239.063 222.749 240.536C217.552 242.786 212.466 245.279 207.89 248.425C210.25 254.653 213.33 261.256 211.979 267.794C210.915 272.968 206.959 277.821 200.743 277.566C200.488 276.813 203.923 272.392 204.433 271.373C205.63 268.99 206.294 265.833 206.472 263.162C206.771 258.553 205.397 253.777 206.571 249.256C203.956 250.664 201.618 252.436 199.125 253.999C196.632 255.561 190.959 258.708 188.699 260.315C187.281 261.312 186.915 268.713 187.258 273.068C187.524 276.458 190.571 279.029 191.79 282.309C193.142 285.932 192.167 292.303 192.167 292.303C192.167 292.303 186.494 288.525 184.865 284.735C184.101 282.963 184.577 279.494 184.544 275.949C184.511 271.927 184.101 267.672 184.987 263.339C185.065 262.941 185.264 262.586 185.386 262.209C185.275 261.91 184.444 262.531 184.3 262.619C179.48 265.345 177.264 267.605 175.092 272.536C173.696 275.705 168.666 283.45 168.666 283.45C168.666 283.45 165.718 279.439 166.405 276.492C167.159 273.245 167.702 271.627 171.669 266.708C172.145 266.121 176.156 263.583 177.153 262.785C178.716 261.544 180.511 260.547 182.173 259.428L182.15 259.384Z" fill="#5C7653"/>
<path d="M265.86 249.834C275.987 248.604 289.073 238.188 289.627 227.695C289.671 226.92 289.239 223.385 289.572 223.053C290.425 222.211 292.973 222.742 294.181 222.665C297.804 222.41 302.314 220.859 305.239 219.119C310.491 215.928 318.812 208.781 321.45 202.975C329.006 186.067 310.99 166.233 297.483 161.657C280.652 156.649 262.026 161.768 249.838 176.084C247.91 178.266 246.403 181.734 243.899 183.131C237.982 186.366 234.913 187.186 230.104 191.984C221.849 199.928 221.284 218.055 227.035 226.853C232.941 236.316 252.42 251.252 265.849 249.845L265.86 249.834ZM256.962 180.593C258.48 179.153 260.043 177.668 261.749 176.361C270.059 169.856 278.768 167.053 288.32 169.701C294.957 171.674 304.696 176.759 308.153 183.23C310.558 187.829 311.522 195.917 309.317 201.047C306.148 208.349 298.79 208.394 292.375 206.532C289.948 205.845 290.236 205.845 288.22 204.471C278.469 198.089 270.392 189.845 261.35 183.33C259.965 182.377 258.148 181.779 256.962 180.582V180.593ZM240.974 229.989C234.392 220.05 228.952 210.211 236.796 199.629C238.303 197.535 240.209 195.54 242.436 193.768C243.522 194.111 244.342 194.798 245.273 195.275C256.264 201.225 264.641 208.205 272.696 217.745C273.206 218.377 274.081 218.887 274.503 219.485C274.757 219.828 275.489 223.363 275.588 224.028C277.76 238.897 264.697 242.089 251.722 237.335C249.24 236.46 246.569 235.518 244.386 233.878C242.591 232.537 242.026 231.618 240.985 229.989H240.974Z" fill="#F2674E"/>
<path d="M240.977 229.99C234.395 220.051 228.955 210.212 236.799 199.63C238.306 197.536 240.212 195.541 242.439 193.769C243.525 194.112 244.345 194.799 245.276 195.275C256.267 201.226 264.644 208.206 272.699 217.746C273.209 218.378 274.084 218.887 274.505 219.486C274.76 219.829 275.492 223.364 275.591 224.029C277.763 238.898 264.699 242.09 251.724 237.336C249.242 236.461 246.572 235.519 244.389 233.879C242.594 232.538 242.029 231.619 240.988 229.99H240.977Z" fill="#E86749"/>
<path d="M256.965 180.594C258.483 179.154 260.045 177.669 261.752 176.362C270.062 169.858 278.771 167.054 288.322 169.702C294.959 171.675 304.699 176.761 308.156 183.231C310.56 187.83 311.524 195.918 309.319 201.048C306.15 208.35 298.793 208.395 292.377 206.533C289.951 205.846 290.239 205.846 288.222 204.472C278.472 198.09 270.394 189.846 261.353 183.331C259.968 182.378 258.15 181.78 256.965 180.583V180.594Z" fill="#EE4020"/>
<path d="M277.672 181.679C276.996 181.701 275.001 177.912 275.046 177.203C275.112 176.305 276.575 175.408 277.483 175.873C279.644 176.97 278.591 179.829 277.661 181.679H277.672Z" fill="#F4BA92"/>
<path d="M298.869 191.02C299.213 190.92 300.309 191.607 300.564 192.006C301.972 194.211 296.642 196.128 294.902 196.094C295.246 195.529 295.733 194.144 296.154 193.734C296.575 193.313 298.692 191.075 298.869 191.02Z" fill="#F4BA92"/>
<path d="M296.353 186.976C295.999 187.419 293.65 189.624 293.317 189.314C293.052 188.161 294.193 182.754 296.176 183.607C297.772 184.306 297.329 185.779 296.353 186.976Z" fill="#F4BA92"/>
<path d="M287.91 180.704C287.71 181.214 286.17 183.929 285.738 183.751C285.084 182.81 284.331 177.668 286.58 177.779C288.386 177.879 288.453 179.319 287.91 180.693V180.704Z" fill="#F4BA92"/>
<path d="M245.441 215.751C245.341 215.219 246.316 214.078 246.77 213.701C247.191 213.347 249.23 211.962 249.662 212.328C250.05 212.649 249.696 216.35 249.352 216.893C248.067 218.898 245.651 216.948 245.441 215.762V215.751Z" fill="#F4BA92"/>
<path d="M259.412 224.992C259.9 226.255 261.484 231.518 258.437 230.776C255.412 230.045 258.06 225.989 259.412 224.992Z" fill="#F4BA92"/>
<path d="M251.944 224.881C251.667 224.881 250.703 224.46 250.503 224.25C249.451 223.142 252.642 220.106 253.672 219.496C254.381 220.914 254.392 224.914 251.944 224.87V224.881Z" fill="#F4BA92"/>
<path d="M265.728 221.479C266.404 222.852 269.506 226.775 266.603 227.174C263.589 227.573 264.343 222.653 265.728 221.479Z" fill="#F4BA92"/>
<path d="M245.53 205.822C245.629 205.811 246.837 205.689 246.649 206.044C245.906 207.274 241.995 211.639 241.186 208.503C240.765 206.875 243.967 206.01 245.53 205.811V205.822Z" fill="#F4BA92"/>
<path d="M360.522 222.166C357.873 224.459 355.779 226.853 353.175 227.872C350.018 229.113 346.815 229.069 343.879 228.781C340.732 228.47 337.763 227.484 335.092 225.855C332.422 224.227 330.55 221.745 328.588 219.307C326.627 216.869 324.843 214.332 323.791 211.473C322.66 208.393 321.552 205.313 321.785 202.365C322.04 199.174 324.09 196.825 326.295 194.52C328.91 191.795 330.904 188.792 333.608 186.997C336.821 184.87 340.056 183.252 343.17 182.498C346.86 181.612 350.738 181.28 353.885 182.432C357.031 183.584 358.926 186.964 361.109 190.188C363.713 192.282 366.594 194.077 367.691 196.781C368.854 199.64 368.355 202.93 368.112 206.044C367.868 209.157 367.547 212.193 366.239 215.03C364.932 217.867 362.594 219.905 360.522 222.155V222.166Z" fill="#FCF3EE"/>
<path d="M151.761 290.649C148.589 294.175 145.216 297.796 140.785 299.461C138.611 300.277 136.288 300.582 133.997 300.884C131.207 301.245 128.402 301.609 125.605 301.388C122.808 301.166 119.984 300.332 117.826 298.542C121.692 292.675 126.897 287.759 132.67 283.752C134.236 282.671 135.847 281.639 137.641 281.003C141.748 279.535 150.457 281.715 150.457 281.715L154.425 284.502C154.425 284.502 153.563 288.655 151.754 290.658L151.761 290.649Z" fill="#5B9856"/>
<path d="M379.058 193.058C390.549 192.759 401.274 203.285 396.598 214.997C391.911 226.72 376.554 223.983 368.853 217.113C358.926 208.26 366.593 193.379 379.058 193.058ZM372.056 205.49C370.903 208.858 372.477 211.872 375.202 213.822C379.812 217.124 387.712 218.188 390.006 211.662C390.582 210.011 390.87 206.964 389.895 205.446C389.629 205.047 386.017 203.385 385.319 203.141C379.889 201.18 376.864 203.352 372.056 205.49Z" fill="#615553"/>
<path d="M444.89 304.445L198.462 104.735L20.2715 223.985V235.169L141.08 264.519L259.971 294.366L435.665 320.631L444.89 304.445Z" fill="#F7D575"/>
<path d="M229.231 129.663L444.891 304.444L438.025 316.49C301.291 289.45 52.5859 224.055 52.5859 224.055C52.5859 224.055 57.0336 211.562 76.9362 195.175C96.8387 178.788 111.067 184.121 111.067 184.121C111.067 184.121 121.012 161.422 136.738 151.996C152.464 142.57 173.676 141.366 173.676 141.366C173.676 141.366 178.148 124.519 189.072 118.432C199.997 112.344 211.665 115.423 211.665 115.423L229.231 129.651V129.663Z" fill="#FCA287"/>
<path d="M188.634 73L204.773 88.1835L199.205 104.736L20.4593 224.068V235.667L2.29102 212.766L10.1246 193.029L188.634 73Z" fill="#E8B07B"/>
<path d="M207.78 148.47C197.257 151.183 184.893 163.984 185.766 175.144C185.825 175.97 186.78 179.639 186.462 180.04C185.683 181.055 182.922 180.842 181.648 181.09C177.861 181.857 173.319 184.122 170.476 186.364C165.368 190.469 157.581 199.164 155.599 205.664C149.972 224.564 171.75 243.004 186.651 245.941C205.114 248.891 224.072 240.892 234.938 224.092C236.672 221.52 237.781 217.651 240.223 215.834C246.016 211.599 249.142 210.301 253.555 204.567C261.164 195.035 259.241 175.817 251.938 167.334C244.388 158.167 221.748 145.107 207.768 148.458L207.78 148.47ZM226.798 220.317C225.394 222.039 223.955 223.833 222.338 225.449C214.469 233.471 205.656 237.636 195.216 236.173C187.936 235.017 176.941 231.006 172.399 224.647C169.214 220.116 167.078 211.728 168.695 206.007C171.031 197.854 178.782 196.781 185.813 197.866C188.467 198.256 188.161 198.303 190.485 199.459C201.669 204.85 211.331 212.413 221.796 218.04C223.388 218.854 225.394 219.232 226.81 220.329L226.798 220.317ZM236.802 165.966C245.131 175.545 252.245 185.172 245.426 197.442C244.117 199.86 242.394 202.231 240.294 204.402C239.103 204.19 238.135 203.576 237.085 203.211C224.662 198.456 214.847 192.251 205.019 183.308C204.394 182.718 203.403 182.293 202.872 181.727C202.554 181.397 201.291 177.775 201.103 177.079C196.749 161.683 210.092 156.504 224.45 159.713C227.199 160.291 230.136 160.904 232.673 162.344C234.749 163.5 235.481 164.408 236.802 165.977V165.966Z" fill="#F2674E"/>
<path d="M236.802 165.966C245.132 175.545 252.245 185.172 245.426 197.442C244.117 199.86 242.394 202.231 240.295 204.402C239.103 204.19 238.136 203.576 237.086 203.211C224.663 198.456 214.847 192.251 205.02 183.308C204.394 182.718 203.403 182.294 202.873 181.727C202.554 181.397 201.292 177.775 201.103 177.079C196.75 161.683 210.093 156.504 224.45 159.713C227.199 160.291 230.137 160.905 232.673 162.344C234.75 163.5 235.481 164.408 236.802 165.978V165.966Z" fill="#EE4020"/>
<path d="M226.799 220.317C225.395 222.04 223.955 223.833 222.339 225.449C214.47 233.472 205.657 237.636 195.217 236.173C187.937 235.017 176.942 231.006 172.4 224.647C169.215 220.117 167.079 211.729 168.696 206.007C171.031 197.855 178.782 196.781 185.814 197.867C188.468 198.256 188.162 198.303 190.486 199.459C201.67 204.851 211.332 212.413 221.797 218.041C223.389 218.855 225.395 219.232 226.81 220.329L226.799 220.317Z" fill="#EE4020"/>
<path d="M204.772 222.062C205.492 221.944 208.123 225.672 208.158 226.415C208.205 227.382 206.79 228.515 205.763 228.161C203.333 227.3 204.041 224.138 204.761 222.05L204.772 222.062Z" fill="#F4BA92"/>
<path d="M181.117 215.137C180.775 215.291 179.513 214.712 179.194 214.335C177.401 212.2 182.757 209.439 184.597 209.227C184.314 209.875 183.984 211.397 183.606 211.893C183.217 212.388 181.306 215.055 181.117 215.137Z" fill="#F4BA92"/>
<path d="M184.328 219.067C184.646 218.548 186.817 215.893 187.218 216.176C187.655 217.356 187.206 223.231 184.988 222.594C183.207 222.075 183.478 220.459 184.328 219.055V219.067Z" fill="#F4BA92"/>
<path d="M194.106 224.516C194.247 223.95 195.498 220.871 195.97 220.989C196.796 221.897 198.294 227.218 195.911 227.407C193.988 227.56 193.716 226.038 194.106 224.516Z" fill="#F4BA92"/>
<path d="M234.066 181.608C234.242 182.151 233.381 183.496 232.945 183.968C232.544 184.393 230.585 186.139 230.09 185.82C229.641 185.525 229.5 181.573 229.783 180.959C230.857 178.659 233.676 180.393 234.066 181.608Z" fill="#F4BA92"/>
<path d="M218.032 173.798C217.348 172.524 214.941 167.191 218.256 167.557C221.548 167.911 219.318 172.559 218.032 173.798Z" fill="#F4BA92"/>
<path d="M225.935 172.865C226.23 172.83 227.303 173.136 227.539 173.325C228.802 174.352 225.852 177.997 224.861 178.776C223.918 177.384 223.351 173.16 225.935 172.865Z" fill="#F4BA92"/>
<path d="M211.861 178.388C210.952 177.031 207.13 173.326 210.15 172.501C213.276 171.663 213.17 176.948 211.861 178.388Z" fill="#F4BA92"/>
<path d="M235.363 192.108C235.257 192.132 234.006 192.439 234.148 192.026C234.761 190.622 238.277 185.466 239.575 188.663C240.247 190.315 236.991 191.672 235.363 192.108Z" fill="#F4BA92"/>
<path d="M252.151 265.466C259.796 273.17 277.103 277.382 286.294 270.988C286.978 270.516 289.668 267.838 290.163 267.908C291.426 268.074 292.641 270.563 293.502 271.53C296.074 274.409 300.333 277.193 303.707 278.514C309.818 280.85 321.262 283.175 327.88 281.605C347.039 276.922 351.947 248.808 346.969 234.462C340.185 217.037 323.716 204.721 303.719 203.824C300.616 203.635 296.723 204.626 293.915 203.435C287.332 200.568 284.63 198.527 277.457 197.618C265.388 195.861 249.768 207.233 246.135 217.816C242.041 228.965 242.206 255.096 252.151 265.466ZM304.556 212.755C306.762 213.097 309.028 213.439 311.234 214.017C322.135 216.754 330.181 222.252 334.192 232.008C336.87 238.875 338.958 250.389 335.773 257.527C333.472 262.552 327.314 268.64 321.545 270.138C313.334 272.238 308.485 266.092 305.866 259.473C304.863 256.996 305.052 257.22 304.887 254.636C303.884 242.272 305.535 230.097 305.111 218.229C305.005 216.447 304.32 214.524 304.556 212.743V212.755ZM252.588 231.584C256.646 219.55 261.365 208.555 275.393 208.236C278.141 208.142 281.055 208.437 283.993 209.145C284.406 210.277 284.371 211.422 284.583 212.519C286.754 225.638 286.364 237.247 283.604 250.247C283.403 251.085 283.545 252.159 283.321 252.902C283.191 253.338 280.702 256.264 280.206 256.783C269.116 268.321 257.909 259.426 253.426 245.41C252.541 242.756 251.585 239.901 251.538 236.975C251.491 234.592 251.904 233.507 252.588 231.572V231.584Z" fill="#F2674E"/>
<path d="M252.587 231.582C256.645 219.549 261.364 208.553 275.392 208.235C278.14 208.141 281.054 208.435 283.992 209.143C284.405 210.276 284.37 211.42 284.582 212.517C286.753 225.636 286.363 237.245 283.603 250.246C283.402 251.084 283.544 252.157 283.32 252.901C283.19 253.337 280.701 256.263 280.205 256.782C269.115 268.32 257.908 259.425 253.424 245.409C252.54 242.755 251.584 239.9 251.537 236.974C251.49 234.591 251.903 233.505 252.587 231.571V231.582Z" fill="#EE4020"/>
<path d="M304.557 212.753C306.763 213.095 309.028 213.437 311.234 214.015C322.135 216.752 330.181 222.25 334.193 232.007C336.871 238.873 338.959 250.387 335.773 257.525C333.473 262.551 327.315 268.638 321.546 270.137C313.334 272.236 308.486 266.09 305.867 259.471C304.864 256.994 305.052 257.218 304.887 254.634C303.885 242.271 305.536 230.095 305.111 218.227C305.005 216.446 304.321 214.523 304.557 212.741V212.753Z" fill="#EE4020"/>
<path d="M317.181 230.875C316.721 230.32 318.608 226.156 319.234 225.743C320.036 225.212 321.735 225.861 321.947 226.923C322.431 229.447 319.352 230.438 317.181 230.863V230.875Z" fill="#F4BA92"/>
<path d="M323.161 254.801C323.468 255.025 323.609 256.405 323.444 256.865C322.512 259.484 317.416 256.263 316.307 254.777C317.003 254.694 318.489 254.211 319.103 254.281C319.728 254.364 322.996 254.671 323.161 254.801Z" fill="#F4BA92"/>
<path d="M324.931 250.047C324.33 250.035 320.932 249.504 320.979 249.02C321.781 248.041 327.067 245.469 327.645 247.699C328.105 249.492 326.571 250.082 324.931 250.047Z" fill="#F4BA92"/>
<path d="M324.685 238.85C324.13 239.015 320.839 239.499 320.697 239.015C321.063 237.847 324.897 233.859 326.266 235.818C327.363 237.399 326.195 238.401 324.685 238.838V238.85Z" fill="#F4BA92"/>
<path d="M267.479 226.038C267.856 225.613 269.449 225.672 270.074 225.814C270.64 225.944 273.141 226.746 273.118 227.348C273.094 227.879 269.756 230.002 269.083 230.073C266.558 230.309 266.629 226.994 267.479 226.05V226.038Z" fill="#F4BA92"/>
<path d="M268.836 243.817C268.093 245.056 264.707 249.822 263.339 246.778C261.982 243.758 267.126 243.333 268.836 243.817Z" fill="#F4BA92"/>
<path d="M264.043 237.47C263.866 237.234 263.583 236.148 263.63 235.853C263.878 234.249 268.514 234.945 269.694 235.417C268.963 236.939 265.612 239.558 264.043 237.481V237.47Z" fill="#F4BA92"/>
<path d="M275.914 246.825C275.194 248.287 273.932 253.467 271.702 251.284C269.401 249.007 274.026 246.435 275.914 246.825Z" fill="#F4BA92"/>
<path d="M275.877 219.621C275.959 219.704 276.844 220.624 276.419 220.706C274.897 220.883 268.668 220.447 270.78 217.722C271.865 216.306 274.685 218.43 275.877 219.621Z" fill="#F4BA92"/>
<path d="M215.047 192.227C212.228 194.669 209.998 197.218 207.225 198.303C203.863 199.624 200.454 199.577 197.327 199.27C193.977 198.94 190.815 197.89 187.972 196.156C185.128 194.422 183.135 191.779 181.046 189.183C178.958 186.588 177.059 183.886 175.938 180.843C174.735 177.563 173.555 174.283 173.803 171.145C174.074 167.747 176.257 165.246 178.604 162.792C181.389 159.89 183.512 156.693 186.391 154.782C189.812 152.517 193.257 150.794 196.572 149.992C200.501 149.048 204.63 148.694 207.98 149.921C211.331 151.148 213.348 154.746 215.672 158.179C218.445 160.409 221.512 162.32 222.68 165.199C223.919 168.243 223.388 171.747 223.128 175.062C222.869 178.377 222.527 181.609 221.135 184.63C219.743 187.65 217.253 189.821 215.047 192.215V192.227Z" fill="#FCF3EE"/>
<path d="M100.12 190.928C111.705 179.367 133.118 179.756 139.736 196.449C146.366 213.155 127.809 225.365 113.109 225.802C94.1737 226.368 87.5434 203.469 100.108 190.928H100.12ZM105.051 210.642C107.151 215.255 111.728 216.824 116.471 216.175C124.47 215.078 133.672 208.436 129.661 199.458C128.646 197.181 125.956 193.748 123.455 193.146C122.795 192.981 117.439 194.81 116.459 195.234C108.921 198.526 107.93 203.729 105.039 210.642H105.051Z" fill="#615553"/>
<path d="M404.587 302.569C397.58 302.086 390.277 301.472 384.272 297.827C381.334 296.045 378.857 293.615 376.415 291.196C373.454 288.282 370.457 285.333 368.156 281.876C365.856 278.42 364.251 274.349 364.369 270.197C374.751 269.347 385.239 270.916 395.196 273.996C397.886 274.821 400.564 275.777 402.947 277.275C408.422 280.72 413.837 292.883 413.837 292.883L414.214 300.056C414.214 300.056 408.575 302.852 404.599 302.569H404.587Z" fill="#5B9856"/>
<path d="M366.646 256.075C378.88 255.756 390.3 266.964 385.322 279.434C380.331 291.916 363.98 289.002 355.78 281.688C345.21 272.261 353.374 256.417 366.646 256.075ZM359.19 269.312C357.963 272.898 359.638 276.107 362.54 278.184C367.448 281.699 375.86 282.832 378.302 275.883C378.916 274.125 379.222 270.881 378.184 269.265C377.901 268.84 374.055 267.07 373.312 266.811C367.531 264.723 364.31 267.035 359.19 269.312Z" fill="#625654"/>
<path d="M204.417 188.102L210.815 196.969C214.019 199.107 219.061 204.851 221.818 210.753C224.795 217.106 225.389 223.574 225.389 223.574C225.389 223.574 219.007 224.01 215.29 217.614C211.407 210.92 209.961 203.891 207.121 198.495C203.97 192.508 201.285 188.048 189.901 183.012C185.88 181.239 181.647 179.993 177.452 178.944L184.694 185.318C186.986 187.372 188.268 190.176 189.974 192.086C193.345 195.844 196.37 198.643 197.862 202.845C200.118 209.173 197.262 215.736 197.262 215.736C197.262 215.736 191.78 213.339 190.698 203.892C190.077 198.427 189.037 196.439 188.015 193.592C186.889 190.441 169.791 177.602 165.236 175.997C161.359 174.638 158.101 172.595 154.372 170.875C152.913 170.202 149.083 168.611 148.008 167.772C145.547 165.827 146.511 162.507 149.346 162.765C156.223 166.162 163.243 169.219 170.511 171.193C174.874 163.305 178.99 154.34 186.925 150.001C193.196 146.567 201.671 146.395 206.859 153.023C206.301 153.95 198.729 154.277 197.233 154.643C193.722 155.496 189.883 157.57 186.979 159.735C181.964 163.458 178.23 169.071 172.54 171.82C176.285 173.286 180.159 174.137 183.958 175.348C187.758 176.559 195.98 179.642 199.605 180.577C201.883 181.158 209.842 175.06 214.034 170.885C217.309 167.637 217.287 162.234 219.599 158.108C222.151 153.525 229.573 148.965 229.573 148.965C229.573 148.965 230.641 158.136 228.147 163.132C226.979 165.475 222.99 168.033 219.357 171.159C215.231 174.724 211.206 178.877 205.956 181.762C205.481 182.022 204.938 182.139 204.432 182.34C204.227 182.722 205.6 183.035 205.8 183.109C212.831 185.688 217.103 186.008 224.106 183.924C228.607 182.586 241.002 180.995 241.002 180.995C241.002 180.995 239.434 187.548 235.803 189.427C231.789 191.509 229.64 192.351 221.092 192.562C220.073 192.581 213.934 190.672 212.236 190.333C209.582 189.809 206.982 188.833 204.369 188.099L204.417 188.102Z" fill="#5C7653"/>
<path d="M233.701 236.535C235.452 227.71 237.417 218.531 243.023 211.492C245.763 208.049 249.253 205.295 252.722 202.585C256.905 199.295 261.139 195.966 265.904 193.604C270.669 191.242 276.101 189.864 281.359 190.687C280.753 204.016 277.058 217.088 271.53 229.24C270.044 232.523 268.396 235.771 266.105 238.556C260.84 244.952 244.507 249.859 244.507 249.859L235.332 249.175C235.332 249.175 232.694 241.556 233.699 236.55L233.701 236.535Z" fill="#5B9856"/>
<path d="M286.26 245.953C283.877 247.994 282.06 250.094 279.512 251.191C276.421 252.536 273.129 252.808 270.086 252.82C266.841 252.808 263.715 252.147 260.836 250.861C258.005 249.54 255.846 247.345 253.652 245.163C251.445 242.921 249.452 240.609 248.142 237.99C246.738 235.147 245.346 232.292 245.275 229.684C245.181 226.877 246.88 225.048 248.708 223.314C250.855 221.32 252.366 219.102 254.678 218.005C257.415 216.743 260.235 215.917 263.066 215.752C266.417 215.551 270.05 215.763 273.247 216.908C276.421 217.981 278.898 220.447 281.6 222.783C284.526 224.305 287.688 225.579 289.268 227.396C290.956 229.307 291.05 231.548 291.345 233.684C291.628 235.796 291.84 238.014 290.979 240.149C290.118 242.296 288.042 244.054 286.248 245.953H286.26Z" fill="#FCF3EE"/>
</svg>
