<svg width="508" height="335" viewBox="0 0 508 335" fill="none" xmlns="http://www.w3.org/2000/svg">
<path d="M61.483 250.582C55.7929 228.439 54.8678 205.166 63.9354 183.603C84.9961 134.754 123.42 84.2533 175.999 82.8038C228.579 81.3542 226.452 105.036 243.49 112.191C259.732 119.228 276.296 126.276 290.097 137.563C308.942 152.411 323.721 177.148 316.449 201.131C307.565 228.643 281.965 247.01 259.248 263.01C227.162 286.132 185.621 285.766 161.505 252.121C146.662 230.419 147.888 202.411 148.63 177.158C149.598 147.322 145.296 96.2994 122.202 81.3542C102.766 68.7654 82.533 73.844 74.6271 90.9626C63.3868 113.687 71.6154 141.318 94.3864 152.96C134.733 177.836 188.783 121.854 214.953 160.47C230.776 186.121 213.372 223.576 184.728 231.355C163.108 238.725 138.39 230.645 117.114 238.488C93.0526 247.892 92.6318 262.711 101.015 271.656C109.399 280.602 137.21 277.929 155.969 275.594" stroke="#FFC340" stroke-width="13.0196" stroke-miterlimit="10"/>
<path d="M388.023 113.351C408.201 131.685 426.724 154.582 421.851 183.794C418.925 202.936 407.018 221.055 390.088 229.856C374.018 238.475 355.13 236.441 338.393 230.33C296.713 216.417 269.252 174.164 224.915 167.17C209.426 164.663 191.925 167.429 179.964 177.758C160.27 194.435 165.088 223.25 180.448 241.326C198.401 263.911 226.614 272.884 252.989 282.482C262.142 286.183 272.64 291.595 277.631 299.202C283.741 308.359 278.911 317.042 269.489 321.765C255.323 328.856 236.359 327.565 220.515 323.702C202.015 318.871 184.751 310.887 175.995 294.436C165.852 274.875 178.921 253.732 198.885 247.029C223.85 238.023 251.848 246.835 276.491 254.238C320.409 268.505 368.263 278.673 413.633 265.535C431.123 260.661 447.236 252.172 463.069 243.435" stroke="#FFC340" stroke-width="13.0196" stroke-miterlimit="10"/>
<path d="M31 168.906C36.604 145.31 55.3845 126.362 77.2519 115.893C99.1194 105.424 123.837 102.454 148.082 102.099C162.183 101.884 176.597 102.561 189.784 107.565C231.077 123.209 251.88 177.191 295.507 184.055C308.189 186.046 321.107 183.571 333.703 181.096C348.31 178.234 363.326 175.2 375.803 167.076C378.309 165.441 380.761 163.537 382.224 160.922C385.623 154.832 382.569 147.02 377.922 141.823C370.64 133.7 359.012 129.235 348.407 131.806C337.801 134.378 329.174 144.621 329.723 155.521C330.476 170.358 345.47 179.762 358.679 186.551C393.443 204.412 428.218 222.274 462.982 240.135" stroke="#FFC340" stroke-width="13.0196" stroke-miterlimit="10"/>
<path d="M176 199.056C181.4 222.587 263.083 249.142 263.083 249.142C263.083 249.142 297.729 257.255 345.841 250.519C374.173 246.484 406.916 240.545 429.428 221.791C443.702 209.837 449.951 188.759 437.732 173.254C427.073 159.557 402.29 147.571 384.768 152.563C367.085 158.029 365.859 179.861 377.519 192.213C392.287 208.406 415.746 208.341 435.645 213.194C441.916 214.765 448.144 217.046 453.426 220.801C465.591 228.946 470.722 245.807 464.365 259.149C461.719 265.088 457.018 269.887 452.21 274.503" stroke="#FFC340" stroke-width="13.0196" stroke-miterlimit="10"/>
<path d="M214.414 224.098C237.361 187.893 321.908 190.611 300.78 165.813C298.781 163.471 296.548 161.211 293.735 159.934C290.68 158.546 287.205 158.425 283.861 158.693C261.721 160.464 244.193 177.088 225.986 189.801C207.779 202.514 182.192 211.614 164.307 198.438C152.371 189.644 148.153 172.989 151.079 158.456C154.005 143.923 162.945 131.29 173.132 120.534C201.003 91.1348 240.797 72.6197 281.297 73.1319C321.801 73.6541 362.178 94.1614 384.189 128.175C388.114 134.244 391.546 140.937 392.038 148.154C392.543 155.552 389.904 162.847 386.302 169.321C372.136 194.786 342.784 196.387 313.712 198.257C302.747 198.956 291.594 198.05 280.891 200.51C270.188 202.969 260.007 206.405 257.123 217.006C253.583 229.964 266.102 235.033 280.891 230.526C295.681 226.02 332.495 204.11 361.28 217.006" stroke="#FFC340" stroke-width="13.0196" stroke-miterlimit="10"/>
<path d="M356.261 286.514C356.261 295.072 353.982 303.002 350.001 309.912C345.893 317.037 340.542 323.799 333.441 327.931C326.555 331.925 318.143 334.683 309.613 334.683C301.083 334.683 292.437 332.327 285.55 328.333C278.664 324.339 274.213 316.536 270.105 309.401C265.997 302.266 263.131 295.072 263.131 286.514C263.131 277.956 266.271 270.625 270.252 263.716C274.233 256.806 278.273 248.533 285.384 244.411C292.495 240.289 301.083 240.544 309.613 240.544C318.143 240.544 326.741 240.789 333.627 244.784C340.513 248.778 345.149 256.414 349.268 263.549C353.386 270.684 356.271 277.956 356.271 286.514H356.261Z" fill="#F45E43"/>
<path d="M123.813 257.205C118.005 262.251 113.423 267.481 107.711 269.719C100.784 272.441 93.7494 272.344 87.3279 271.709C80.4224 271.031 73.9149 268.858 68.0635 265.307C62.2121 261.757 58.0924 256.291 53.8007 250.932C49.5089 245.574 45.5721 240 43.2703 233.749C40.7856 226.992 38.3547 220.224 38.8602 213.768C39.4088 206.753 43.9049 201.61 48.7452 196.553C54.4783 190.56 58.8561 183.986 64.7828 180.058C71.8174 175.389 78.9381 171.838 85.7468 170.203C93.8355 168.255 102.344 167.523 109.249 170.052C116.155 172.58 120.317 179.983 125.093 187.074C130.816 191.679 137.119 195.617 139.528 201.545C142.077 207.818 140.991 215.038 140.442 221.86C139.894 228.681 139.205 235.342 136.344 241.582C133.526 247.715 128.363 252.288 123.813 257.216V257.205Z" fill="#F45E43"/>
<path d="M295.731 131.45C281.68 119.557 269.293 86.7688 275.066 68.9028C278.377 58.6649 282.083 55.9328 288.062 48.2608L377.13 85.7236C377.13 85.7236 379.645 91.159 380.066 92.2907C385.815 107.547 375.039 131.863 362.564 141.267C345.987 153.771 310.255 143.75 295.723 131.443L295.731 131.45Z" fill="#F2674E"/>
<path d="M316.5 127.486C300.771 114.972 286.444 101.217 289.767 78.8954C290.407 74.6194 291.65 70.3557 293.521 66.362C295.267 66.4319 296.89 67.1771 298.496 67.5272C317.718 71.7372 333.831 78.2351 350.972 88.1457C352.065 88.7842 353.568 89.0396 354.532 89.676C355.088 90.0405 358.33 94.8432 358.894 95.7708C371.234 116.318 356.014 130.287 335.746 132.083C331.877 132.431 327.704 132.778 323.687 131.602C320.395 130.639 318.999 129.488 316.5 127.486Z" fill="#EE4020"/>
<path d="M312.723 101.128C312.231 100.312 312.76 97.8756 313.126 96.9843C313.464 96.1704 315.299 92.7569 316.12 93.0872C316.864 93.3904 318.886 99.5854 318.779 100.656C318.409 104.684 313.805 102.94 312.708 101.129L312.723 101.128Z" fill="#F4BA92"/>
<path d="M337.771 107.372C339.259 109.044 344.839 116.199 340.284 117.056C335.73 117.913 336.618 109.789 337.771 107.372Z" fill="#F4BA92"/>
<path d="M327.68 111.955C327.306 112.123 325.728 112.076 325.33 111.857C323.173 110.724 325.417 103.859 326.393 102.271C328.297 104.093 330.981 110.458 327.672 111.947L327.68 111.955Z" fill="#F4BA92"/>
<path d="M343.967 98.0008C345.774 99.6899 352.485 103.705 348.844 106.16C345.202 108.615 342.862 100.667 343.967 98.0008Z" fill="#F4BA92"/>
<path d="M306.043 84.7535C306.177 84.6716 307.732 83.836 307.724 84.5293C307.545 86.9506 305.202 96.3247 301.931 91.5537C300.227 89.0683 304.029 85.9133 306.035 84.7462L306.043 84.7535Z" fill="#F4BA92"/>
<path d="M258.754 179.987C258.754 179.987 256.836 183.394 255.073 191.013C253.312 198.641 241.925 215.129 230.052 220.518C216.889 226.486 205.618 222.632 200.405 224.375C206.612 210.677 211.632 194.95 221.876 183.528C221.876 183.528 237.213 172.705 249.977 169.451C238.219 158.741 230.572 145.65 230.423 129.046L239.202 104.569C250.713 115.784 263.383 127.196 263.907 144.592C264.117 146.67 264.686 165.87 262.315 166.209C262.315 166.209 287.292 162.642 287.306 162.63C305.3 167.592 314.913 177.57 330.109 187.796C311.575 193.077 301.392 199.077 281.769 195C272.968 192.937 258.75 179.972 258.75 179.972L258.754 179.987Z" fill="#5B9856"/>
<path d="M200.353 120.929L203.542 130.022C194.939 141.366 185.174 155.284 172.939 162.982C162.988 169.24 154.625 166.352 144.501 162.579C130.782 157.464 117.57 149.98 104.931 142.644L122.292 107.181C127.272 104.433 132.704 102.176 137.985 100.047C143.932 97.6524 150.114 94.6815 156.62 95.348C165.155 96.2234 173.915 100.091 181.952 102.938L200.351 120.925L200.353 120.929Z" fill="#5B9856"/>
<path d="M189.826 130.18L121.292 137.904" stroke="#3B8044" stroke-width="4.00603" stroke-miterlimit="10"/>
<path d="M138.916 152.022L162.537 133.253" stroke="#3B8044" stroke-width="4.00603" stroke-miterlimit="10"/>
<path d="M174.546 131.901L146.695 115.73" stroke="#3B8044" stroke-width="4.00603" stroke-miterlimit="10"/>
<path d="M352.338 190.885L356.382 178.877C374.475 174.069 395.854 167.53 414.764 169.439C430.143 170.994 436.481 180.75 443.929 192.849C454.02 209.243 461.67 227.685 468.846 245.512L422.172 268.251C414.786 267.074 407.329 265.023 400.131 262.961C392.028 260.636 383.215 258.719 377.008 252.768C368.865 244.96 362.907 233.868 356.875 224.418L352.337 190.891L352.338 190.885Z" fill="#5B9856"/>
<path d="M370.732 189.801L448.046 237.198" stroke="#3B8044" stroke-width="4.00603" stroke-miterlimit="10"/>
<path d="M441.186 208.309L401.516 208.675" stroke="#3B8044" stroke-width="4.00603" stroke-miterlimit="10"/>
<path d="M387.974 200.372L403.781 239.658" stroke="#3B8044" stroke-width="4.00603" stroke-miterlimit="10"/>
</svg>
