<svg width="508" height="333" viewBox="0 0 508 333" fill="none" xmlns="http://www.w3.org/2000/svg">
<path d="M366.723 291.559C315.839 346.008 209.96 343.201 153.387 299.084C130.463 281.212 104.081 244.164 102.048 214.641C98.786 167.141 109.588 118.244 149.503 88.5998C168.649 74.3845 223.462 62.0049 223.963 61.9593C231.685 61.3222 238.906 61.0491 246.689 61.2008C251.21 61.2918 255.913 59.8961 260.313 61.2008C265.395 62.02 270.781 61.4435 275.833 61.9593C279.914 62.3993 283.767 63.5827 287.575 64.235C288.288 64.3564 367.633 87.1131 387.856 117.349C419.974 165.381 405.47 250.127 366.723 291.559Z" fill="#F45E43"/>
<path d="M321.651 124.419C296.983 124.221 272.375 116.787 247.783 116.803C230.897 117.622 212.07 124.646 194.441 124.419L221.689 108.883L222.432 106.638L183.078 85.0192L230.776 94.1067C231.064 81.6663 218.381 67.7696 218.67 55.4658C219.914 55.4051 223.464 55.5113 223.964 55.4658C227.787 61.6708 235.176 67.1779 239.12 73.2615C240.774 75.5827 241.29 80.9381 245.173 80.4678C246.509 65.3574 246.918 50.1711 246.691 35H259.207C260.375 37.4881 259.829 52.2496 260.314 54.7073L261.831 81.2264C263.409 82.9862 273.179 72.5788 274.545 71.3803C278.99 68.2854 286.105 62.7176 287.577 57.7415L295.041 59.5013C293.918 61.595 284.725 80.1341 281.523 87.2797C294.131 86.9914 305.782 82.8193 318.238 80.4527C319.391 80.4527 320.453 79.952 320.149 81.6057L285.316 107.745L321.651 124.419Z" fill="#2C663D"/>
</svg>
